<svg width="343" height="333" viewBox="0 0 343 333" fill="none" xmlns="http://www.w3.org/2000/svg">
<path d="M342.835 159.121C342.908 160.752 342.957 162.389 342.982 164.032L340.982 164.062C340.994 164.873 341 165.686 341 166.5C341 167.314 340.994 168.127 340.982 168.938L342.982 168.968C342.957 170.611 342.908 172.248 342.835 173.879L340.837 173.789C340.764 175.413 340.667 177.03 340.545 178.642L342.54 178.791C342.417 180.427 342.27 182.056 342.098 183.679L340.109 183.469C339.939 185.085 339.744 186.695 339.525 188.298L341.507 188.568C341.285 190.195 341.039 191.814 340.769 193.425L338.797 193.095C338.529 194.695 338.237 196.287 337.922 197.872L339.883 198.262C339.563 199.873 339.218 201.476 338.85 203.07L336.901 202.62C336.537 204.199 336.149 205.768 335.739 207.329L337.673 207.838C337.255 209.427 336.813 211.007 336.348 212.578L334.43 212.01C333.97 213.564 333.487 215.108 332.982 216.642L334.882 217.268C334.368 218.827 333.832 220.376 333.272 221.915L331.393 221.232C330.839 222.755 330.263 224.268 329.665 225.77L331.523 226.51C330.916 228.033 330.287 229.546 329.637 231.047L327.802 230.252C327.157 231.739 326.49 233.215 325.802 234.68L327.612 235.53C326.915 237.014 326.195 238.487 325.455 239.947L323.671 239.043C322.938 240.487 322.184 241.92 321.41 243.341L323.166 244.299C322.38 245.738 321.574 247.165 320.747 248.58L319.021 247.57C318.203 248.968 317.365 250.353 316.507 251.725L318.203 252.785C317.334 254.176 316.444 255.553 315.534 256.916L313.871 255.805C312.972 257.152 312.053 258.486 311.115 259.805L312.745 260.964C311.795 262.3 310.826 263.622 309.838 264.929L308.242 263.723C307.266 265.014 306.27 266.292 305.256 267.554L306.815 268.807C305.789 270.084 304.744 271.347 303.68 272.595L302.158 271.297C301.108 272.529 300.039 273.746 298.953 274.947L300.437 276.289C299.338 277.504 298.221 278.704 297.087 279.888L295.643 278.504C294.522 279.673 293.385 280.826 292.23 281.963L293.633 283.388C292.466 284.537 291.282 285.67 290.081 286.786L288.72 285.321C287.534 286.424 286.331 287.509 285.112 288.578L286.431 290.082C285.2 291.162 283.953 292.224 282.69 293.27L281.415 291.729C280.168 292.761 278.905 293.776 277.627 294.773L278.857 296.35C277.566 297.357 276.259 298.347 274.937 299.319L273.753 297.707C272.449 298.666 271.131 299.606 269.798 300.529L270.936 302.173C269.589 303.105 268.227 304.019 266.852 304.914L265.761 303.238C264.405 304.12 263.035 304.984 261.652 305.829L262.694 307.535C261.297 308.389 259.886 309.223 258.462 310.038L257.469 308.302C256.064 309.106 254.646 309.891 253.216 310.656L254.159 312.42C252.717 313.192 251.262 313.944 249.794 314.676L248.901 312.887C247.452 313.61 245.992 314.313 244.519 314.996L245.361 316.81C243.877 317.499 242.382 318.167 240.875 318.815L240.085 316.977C238.599 317.616 237.101 318.235 235.593 318.834L236.331 320.693C234.809 321.296 233.277 321.879 231.734 322.441L231.049 320.562C229.531 321.115 228.002 321.648 226.463 322.159L227.094 324.057C225.539 324.574 223.975 325.07 222.401 325.544L221.824 323.629C220.278 324.095 218.722 324.54 217.157 324.964L217.68 326.894C216.101 327.322 214.512 327.728 212.914 328.113L212.446 326.168C210.875 326.547 209.295 326.904 207.706 327.239L208.12 329.196C206.52 329.534 204.913 329.85 203.297 330.144L202.939 328.176C201.347 328.466 199.747 328.734 198.14 328.98L198.443 330.957C196.829 331.204 195.208 331.43 193.58 331.633L193.332 329.648C191.726 329.849 190.113 330.027 188.492 330.184L188.685 332.175C187.061 332.331 185.43 332.466 183.794 332.579L183.656 330.584C182.043 330.694 180.424 330.783 178.798 330.85L178.88 332.849C177.249 332.916 175.611 332.961 173.969 332.983L173.941 330.983C173.129 330.994 172.315 331 171.5 331C170.685 331 169.871 330.994 169.059 330.983L169.031 332.983C167.389 332.961 165.751 332.916 164.12 332.849L164.202 330.85C162.576 330.783 160.957 330.694 159.344 330.584L159.206 332.579C157.57 332.466 155.939 332.331 154.315 332.175L154.508 330.184C152.887 330.027 151.274 329.849 149.668 329.648L149.42 331.633C147.792 331.43 146.17 331.204 144.557 330.957L144.86 328.98C143.252 328.734 141.653 328.466 140.061 328.176L139.703 330.144C138.087 329.85 136.48 329.534 134.88 329.196L135.293 327.239C133.705 326.904 132.125 326.547 130.554 326.168L130.086 328.113C128.488 327.728 126.899 327.322 125.32 326.894L125.843 324.964C124.278 324.54 122.722 324.095 121.176 323.629L120.599 325.544C119.025 325.07 117.461 324.574 115.906 324.057L116.537 322.159C114.998 321.648 113.469 321.115 111.95 320.562L111.266 322.441C109.723 321.879 108.191 321.296 106.669 320.693L107.407 318.834C105.899 318.235 104.401 317.616 102.915 316.977L102.125 318.815C100.618 318.167 99.1227 317.499 97.639 316.81L98.4808 314.996C97.0083 314.313 95.5476 313.61 94.099 312.887L93.2059 314.676C91.7384 313.944 90.2831 313.192 88.8406 312.42L89.7841 310.656C88.3537 309.891 86.9359 309.106 85.531 308.302L84.5376 310.038C83.1136 309.223 81.7028 308.389 80.3055 307.535L81.348 305.828C79.9647 304.984 78.5948 304.12 77.2388 303.238L76.1481 304.914C74.7725 304.019 73.411 303.105 72.0639 302.173L73.202 300.529C71.8693 299.606 70.551 298.666 69.2474 297.707L68.0627 299.319C66.741 298.347 65.4342 297.357 64.1428 296.35L65.3731 294.773C64.0952 293.776 62.8324 292.761 61.5853 291.729L60.3102 293.27C59.0471 292.224 57.7998 291.162 56.5687 290.082L57.8875 288.578C56.6688 287.509 55.4663 286.424 54.2802 285.321L52.9186 286.786C51.7178 285.67 50.5336 284.537 49.3665 283.388L50.7699 281.963C49.6153 280.826 48.4777 279.673 47.3574 278.504L45.9134 279.887C44.7791 278.704 43.6623 277.504 42.5634 276.289L44.0469 274.947C42.9607 273.746 41.8921 272.529 40.8418 271.297L39.3198 272.595C38.2563 271.347 37.2112 270.084 36.1848 268.807L37.744 267.554C36.7298 266.292 35.7342 265.014 34.7576 263.723L33.1623 264.929C32.1738 263.622 31.2045 262.3 30.2548 260.964L31.8849 259.805C30.9468 258.486 30.0281 257.152 29.1292 255.805L27.4657 256.916C26.5559 255.553 25.6662 254.176 24.7968 252.785L26.4926 251.725C25.6345 250.353 24.7966 248.968 23.9792 247.57L22.2527 248.58C21.4258 247.165 20.6196 245.738 19.8345 244.299L21.5903 243.341C20.8156 241.92 20.0616 240.487 19.3289 239.043L17.5452 239.947C16.8046 238.487 16.0855 237.014 15.3881 235.53L17.1982 234.68C16.51 233.215 15.8433 231.739 15.1984 230.252L13.3635 231.047C12.7125 229.546 12.0835 228.033 11.477 226.51L13.3352 225.77C12.737 224.268 12.161 222.755 11.6074 221.232L9.72766 221.915C9.16846 220.376 8.63189 218.827 8.11834 217.268L10.0179 216.642C9.51252 215.108 9.02968 213.564 8.5698 212.01L6.65206 212.578C6.18717 211.007 5.74544 209.427 5.32726 207.838L7.26142 207.329C6.85067 205.768 6.46293 204.199 6.09857 202.62L4.14981 203.07C3.78181 201.476 3.43736 199.873 3.11684 198.262L5.07839 197.872C4.76319 196.287 4.47141 194.695 4.20342 193.095L2.23089 193.425C1.96101 191.814 1.71495 190.194 1.49308 188.568L3.47473 188.298C3.25616 186.695 3.06136 185.085 2.89067 183.469L0.901729 183.679C0.730451 182.056 0.583165 180.427 0.460222 178.791L2.4546 178.641C2.33351 177.03 2.23632 175.413 2.16338 173.789L0.165396 173.879C0.0921407 172.248 0.0430499 170.611 0.0184621 168.968L2.01824 168.938C2.00609 168.127 2 167.314 2 166.5C2 165.686 2.00609 164.873 2.01824 164.062L0.0184631 164.032C0.0430515 162.389 0.0921428 160.752 0.165398 159.121L2.16338 159.211C2.23632 157.587 2.33351 155.97 2.4546 154.358L0.460226 154.209C0.58317 152.573 0.730456 150.944 0.901734 149.321L2.89068 149.531C3.06136 147.915 3.25617 146.305 3.47473 144.702L1.49308 144.432C1.71495 142.805 1.96102 141.186 2.2309 139.575L4.20343 139.905C4.47142 138.305 4.7632 136.713 5.0784 135.128L3.11685 134.738C3.43737 133.127 3.78182 131.524 4.14982 129.93L6.09857 130.38C6.46294 128.801 6.85068 127.232 7.26143 125.671L5.32727 125.162C5.74545 123.573 6.18718 121.993 6.65207 120.422L8.56981 120.99C9.02969 119.436 9.51253 117.892 10.018 116.358L8.11836 115.732C8.6319 114.173 9.16847 112.624 9.72767 111.085L11.6074 111.768C12.161 110.245 12.737 108.732 13.3352 107.23L11.477 106.49C12.0836 104.967 12.7125 103.454 13.3635 101.953L15.1984 102.748C15.8433 101.261 16.51 99.7848 17.1982 98.3202L15.3881 97.4696C16.0855 95.9855 16.8046 94.5132 17.5452 93.0528L19.3289 93.9574C20.0616 92.5125 20.8156 91.0796 21.5903 89.659L19.8345 88.7014C20.6196 87.2618 21.4258 85.8347 22.2528 84.4205L23.9793 85.43C24.7967 84.0321 25.6346 82.647 26.4926 81.2749L24.7968 80.2145C25.6662 78.8243 26.556 77.4474 27.4657 76.0843L29.1292 77.1945C30.0282 75.8476 30.9468 74.5142 31.8849 73.1947L30.2548 72.0358C31.2045 70.6999 32.1738 69.3782 33.1623 68.0709L34.7576 69.2772C35.7342 67.9857 36.7298 66.7084 37.744 65.4459L36.1848 64.1934C37.2112 62.9157 38.2563 61.6529 39.3198 60.4054L40.8418 61.703C41.8922 60.471 42.9607 59.254 44.047 58.0525L42.5634 56.7112C43.6623 55.4958 44.7791 54.2961 45.9134 53.1125L47.3574 54.4963C48.4777 53.3273 49.6153 52.1741 50.7699 51.0372L49.3666 49.6121C50.5336 48.4629 51.7178 47.33 52.9186 46.2139L54.2802 47.6788C55.4663 46.5764 56.6689 45.4906 57.8876 44.4217L56.5688 42.9181C57.7999 41.8383 59.0472 40.7755 60.3103 39.7303L61.5853 41.2712C62.8325 40.2392 64.0952 39.2244 65.3731 38.2272L64.1428 36.6504C65.4342 35.6428 66.741 34.6529 68.0628 33.6812L69.2474 35.2926C70.551 34.3342 71.8694 33.3936 73.2021 32.4714L72.0639 30.8268C73.411 29.8946 74.7725 28.9808 76.1482 28.0858L77.2388 29.7622C78.5948 28.88 79.9647 28.0163 81.348 27.1715L80.3056 25.4646C81.7028 24.6113 83.1137 23.777 84.5377 22.962L85.5311 24.6979C86.9359 23.8939 88.3537 23.1091 89.7842 22.3437L88.8406 20.5803C90.2832 19.8084 91.7384 19.0561 93.206 18.3238L94.099 20.1133C95.5476 19.3904 97.0084 18.6872 98.4809 18.004L97.6391 16.1898C99.1227 15.5014 100.618 14.8331 102.125 14.1852L102.915 16.0226C104.401 15.3836 105.899 14.7648 107.407 14.1664L106.669 12.3074C108.191 11.7038 109.723 11.1209 111.266 10.5589L111.951 12.4382C113.469 11.885 114.998 11.3524 116.537 10.8406L115.906 8.9428C117.461 8.42601 119.025 7.93028 120.599 7.45597L121.176 9.37092C122.722 8.90503 124.278 8.46003 125.843 8.03628L125.32 6.10581C126.899 5.67808 128.488 5.27174 130.086 4.88715L130.554 6.83159C132.125 6.45331 133.705 6.09631 135.294 5.76091L134.88 3.80406C136.48 3.46634 138.087 3.15028 139.703 2.85622L140.061 4.82389C141.653 4.53417 143.253 4.26604 144.86 4.01983L144.557 2.0429C146.171 1.79569 147.792 1.57032 149.42 1.36713L149.668 3.35174C151.274 3.15129 152.887 2.97267 154.508 2.81618L154.315 0.825442C155.939 0.6686 157.57 0.533747 159.206 0.421193L159.344 2.41648C160.957 2.30555 162.576 2.21652 164.202 2.1497L164.12 0.151389C165.751 0.0843309 167.389 0.0393996 169.031 0.0168963L169.059 2.01671C169.871 2.00558 170.685 2 171.5 2C172.315 2 173.129 2.00558 173.941 2.01671L173.969 0.0168973C175.611 0.0394012 177.249 0.0843331 178.88 0.151392L178.798 2.1497C180.424 2.21652 182.043 2.30555 183.656 2.41649L183.794 0.421198C185.43 0.533752 187.061 0.668606 188.685 0.825448L188.492 2.81618C190.113 2.97267 191.726 3.1513 193.332 3.35175L193.58 1.36714C195.208 1.57033 196.83 1.79569 198.443 2.04291L198.14 4.01984C199.748 4.26606 201.347 4.53418 202.939 4.8239L203.297 2.85623C204.913 3.15029 206.52 3.46635 208.12 3.80408L207.707 5.76092C209.295 6.09632 210.875 6.45333 212.446 6.83161L212.914 4.88716C214.512 5.27176 216.101 5.67809 217.68 6.10583L217.157 8.0363C218.722 8.46005 220.278 8.90504 221.824 9.37094L222.401 7.45599C223.975 7.9303 225.539 8.42603 227.094 8.94283L226.463 10.8407C228.002 11.3524 229.531 11.885 231.05 12.4382L231.734 10.559C233.277 11.1209 234.809 11.7039 236.331 12.3074L235.593 14.1665C237.101 14.7648 238.599 15.3836 240.085 16.0226L240.875 14.1852C242.382 14.8331 243.877 15.5014 245.361 16.1898L244.519 18.004C245.992 18.6872 247.452 19.3905 248.901 20.1134L249.794 18.3238C251.262 19.0562 252.717 19.8084 254.159 20.5803L253.216 22.3437C254.646 23.1091 256.064 23.894 257.469 24.6979L258.462 22.9621C259.886 23.777 261.297 24.6113 262.694 25.4647L261.652 27.1715C263.035 28.0164 264.405 28.8801 265.761 29.7623L266.852 28.0858C268.227 28.9808 269.589 29.8946 270.936 30.8268L269.798 32.4714C271.131 33.3937 272.449 34.3342 273.753 35.2926L274.937 33.6812C276.259 34.6529 277.566 35.6428 278.857 36.6505L277.627 38.2273C278.905 39.2244 280.168 40.2392 281.415 41.2712L282.69 39.7303C283.953 40.7756 285.2 41.8383 286.431 42.9181L285.112 44.4217C286.331 45.4906 287.534 46.5765 288.72 47.6789L290.081 46.2139C291.282 47.33 292.466 48.4629 293.633 49.6122L292.23 51.0372C293.385 52.1741 294.522 53.3273 295.643 54.4963L297.087 53.1125C298.221 54.2962 299.338 55.4959 300.437 56.7113L298.953 58.0526C300.039 59.254 301.108 60.471 302.158 61.703L303.68 60.4055C304.744 61.6529 305.789 62.9157 306.815 64.1934L305.256 65.4459C306.27 66.7084 307.266 67.9857 308.242 69.2773L309.838 68.071C310.826 69.3782 311.795 70.7 312.745 72.0359L311.115 73.1947C312.053 74.5142 312.972 75.8476 313.871 77.1946L315.534 76.0844C316.444 77.4475 317.334 78.8243 318.203 80.2145L316.507 81.275C317.365 82.647 318.203 84.0322 319.021 85.43L320.747 84.4205C321.574 85.8347 322.38 87.2618 323.166 88.7014L321.41 89.659C322.184 91.0796 322.938 92.5126 323.671 93.9575L325.455 93.0529C326.195 94.5132 326.915 95.9856 327.612 97.4696L325.802 98.3202C326.49 99.7848 327.157 101.261 327.802 102.748L329.637 101.953C330.288 103.454 330.916 104.967 331.523 106.49L329.665 107.23C330.263 108.732 330.839 110.245 331.393 111.768L333.272 111.085C333.832 112.624 334.368 114.173 334.882 115.732L332.982 116.358C333.487 117.892 333.97 119.436 334.43 120.99L336.348 120.422C336.813 121.993 337.255 123.573 337.673 125.162L335.739 125.671C336.149 127.232 336.537 128.801 336.901 130.38L338.85 129.93C339.218 131.524 339.563 133.127 339.883 134.738L337.922 135.128C338.237 136.713 338.529 138.305 338.797 139.905L340.769 139.575C341.039 141.186 341.285 142.806 341.507 144.432L339.525 144.702C339.744 146.305 339.939 147.915 340.109 149.531L342.098 149.321C342.27 150.944 342.417 152.573 342.54 154.209L340.545 154.359C340.667 155.97 340.764 157.587 340.837 159.211L342.835 159.121Z" stroke="white" stroke-width="4" stroke-dasharray="5 5"/>
</svg>
